<?xml version="1.0" ?><svg id="Layer_15" style="enable-background:new 0 0 128 128;" version="1.1" viewBox="0 0 128 128" xml:space="preserve" xmlns="http://www.w3.org/2000/svg" xmlns:xlink="http://www.w3.org/1999/xlink"><style type="text/css">
	.st0{fill:#FF8AF9;}
	.st1{fill:#F74BF7;}
	.st2{fill:#C114C1;}
	.st3{fill:#962F96;}
	.st4{fill:#720372;}
	.st5{fill:#F77F7F;}
	.st6{fill:#F25A5A;}
	.st7{fill:#231F20;}
</style><path class="st0" d="M60.9,20.1l-13.8,12l18.3,6.1c0,0,15-2.1,16.4-5.6S68,31.8,60.9,20.1z"/><path class="st1" d="M54.3,37.4h25.9l14.3,3.3c0,0-2.5,8.8-14,9.6S58,45.4,54.3,37.4z"/><path class="st2" d="M32.6,40.5l16.5-5c0,0,12.2,13.9,18.4,14.7s21.2-0.1,23.8-1.7c2.6-1.6,8.5,5.9,8.5,5.9s-12.1,12.3-18,11.5  c-5.9-0.8-25.2-7-27-7.8c-1.8-0.8-16.6-8.1-18.3-10.3S32.6,40.5,32.6,40.5z"/><path class="st3" d="M26.6,53l9.6-4.5c0,0,24.3,14.3,33.5,15.6c9.3,1.3-8.4,2.7-12.6,2.9S30.5,63.4,26.6,53z"/><path class="st4" d="M24.1,65.9l6.6-4.5c0,0,45.7,13.1,65.6,0l6.7,4.5c0,0-14.6,17.8-40.5,16.3S24.1,65.9,24.1,65.9z"/><path class="st5" d="M93.7,90.9L90,104.4c0,0-16.3,5.5-25.5,6.1c-9.2,0.7-28-6.1-28-6.1l-1.6-6.2L93.7,90.9z"/><path class="st6" d="M98.5,73.2l-4.8,17.7c-10.2,10.8-46.5,15.6-58.8,7.2l-6.8-26.2c0,0,15,11.6,36.6,9.8  C86.3,79.8,98.5,73.2,98.5,73.2z"/><path class="st7" d="M105.2,63.1c-2.1-1.1-4-2.3-5.9-3.6c1.3-1.2,2.6-2.3,4-3.4c1.8-1.3,1.8-4.4-0.7-5c-3-0.7-5.6-1.9-8-3.8  c1.6-2.3,2.9-4.8,3.9-7.5c0.8-2.1-1.5-3.7-3.4-3.4c-4.1,0.7-8.1,0.3-11.8-1.1c0.8-1.1,1.5-2.2,2.1-3.5c0.5-1,2.8-4.4-3.3-4.1  c-5.5,0.3-10.8-0.7-14.7-5c-1.9-2.1-3-4.8-5-6.8c-1.4-1.4-4.1-0.8-4.6,1.2c-1.5,6.4-6.9,10.6-13.5,10.5c-2.2-0.1-3.2,2.3-2.4,4.1  c0.6,1.3,1.3,2.4,2.1,3.5c-3.8,1.5-7.7,1.9-11.8,1.1c-1.9-0.3-4.2,1.2-3.4,3.4c1,2.7,2.3,5.2,3.9,7.5c-2.4,1.8-5,3-8,3.8  c-2.5,0.6-2.4,3.7-0.7,5c1.6,1.2,3,2.4,4.4,3.8c-1.7,1.2-3.5,2.3-5.3,3.2c-1.4,0.7-1.6,2.5-1,3.8c0.7,1.3,1.5,2.6,2.5,3.7  C27,82.1,34.9,106,35.6,106.4c4,2.4,12.8,5,13,5c5.1,1.1,10.3,1.7,15.7,1.3c6.5-0.4,15.6-2.7,19.8-4.1c4.1-1.4,8.2-2.9,8.6-3.9  c4.2-10.6,6.8-21.6,9.3-32.6c1.6-1.6,3.1-3.3,4.1-5.3C106.8,65.6,106.5,63.8,105.2,63.1z M85.3,75.4c-7.9,2.8-16.1,3.9-24.5,4  c-6-0.5-12-2.6-17.8-4.3c-9.4-2.6-14.7-8.6-14.9-8.8c1.4-0.8,2.7-1.7,4-2.7C42.5,69,54,70.2,65.6,70.1c6.1,0,12.7,0.3,18.7-1.3  c4-1.1,7.6-3.2,10.9-5.6c1.5,1.2,3.1,2.2,4.7,3.2C96.4,70.8,90.3,73.6,85.3,75.4z M72.1,106.8c1.3-7.6,1.8-15.2,2.2-23  c2.5-0.4,5.1-0.9,7.6-1.6c-1.6,8.1-3,16.1-5.7,23.9C74.7,106.4,73.4,106.6,72.1,106.8z M50.9,106.3c-2.9-8-4.2-16.3-5.9-24.7  c2.5,0.8,5.1,1.5,7.7,2c0.3,7.8,0.9,15.5,2.2,23.2C53.6,106.8,52.2,106.6,50.9,106.3z M39.2,102.1c-3.3-8.5-5.8-17.3-7.9-26.1  c2.5,1.4,5.1,2.6,7.6,3.5c0,0,0,0,0.1,0c0,0.1,0,0.3,0,0.4c1.8,8.3,3,16.6,5.5,24.6C42.8,103.9,41,103.1,39.2,102.1z M36.1,51.5  c7.3,6.7,18.2,9.9,27.4,12.2c1.3,0.3,2.6,0.6,4,1c-1.3,0-2.5,0-3.8,0c-10.1,0-20.1-1.2-29.1-5.8c-0.1-0.3-0.3-0.6-0.5-0.8  c-1.1-1.2-2.2-2.3-3.4-3.3C32.6,53.9,34.4,52.8,36.1,51.5z M91.4,42.2c-0.7,1.2-1.4,2.3-2.3,3.4c-6.1,3.2-13.5,3.8-20,1.6  c-4.4-1.5-8.3-4.6-11.9-8c7.1,1.9,14.5,2.6,21.5-0.1C82.7,41.2,86.9,42.2,91.4,42.2z M61.1,23.4c1.2,1.7,2.4,3.5,4.1,4.9  c3.7,3.1,8,4.5,12.6,4.8c-0.2,0.2-0.5,0.5-0.7,0.7c-7.9,3.5-17.3,0.8-25.4-2.1C55.7,30.2,59,27.2,61.1,23.4z M48.8,39  c6,5.5,12.1,11.8,20.1,13.9c7.1,1.9,14.8,1.2,21.4-1.9c1.8,1.5,3.8,2.7,5.9,3.7c-1.2,1-2.3,2.1-3.4,3.3c-1.2,0.9-2.4,1.7-3.7,2.4  C82.1,63,71.9,60.1,65,58.4c-9.1-2.2-20.3-5.3-26.8-12.6c-1-1.2-1.8-2.4-2.5-3.6C40.2,42.2,44.6,41.2,48.8,39z M60.5,107.3  c-1.4-7.5-1.9-15-2.3-22.6c0.6,0.1,8.1,0.1,10.5-0.1c-0.3,7.6-0.9,15.2-2.3,22.7C65.7,107.3,61.8,107.3,60.5,107.3z M88.1,101.7  c-1.9,1.1-3.7,1.9-5.6,2.6c2.4-7.9,3.6-16,5.4-24.1c0.4-0.2,0.8-0.3,1.3-0.5c2-0.8,4.2-1.8,6.3-2.9C93.4,85.3,91.1,93.6,88.1,101.7z  "/></svg>